<svg width="50" height="39" viewBox="0 0 50 39" fill="none" xmlns="http://www.w3.org/2000/svg">
<path d="M49.0977 1.60059C49.0977 1.90983 48.9919 2.18652 48.7803 2.43066C48.585 2.65853 48.3408 2.79688 48.0479 2.8457C47.2666 3.02474 46.4854 3.17122 45.7041 3.28516C44.9391 3.39909 44.1497 3.47233 43.3359 3.50488C42.8802 6.8903 42.4245 9.89323 41.9688 12.5137C41.5293 15.1341 41.0736 17.486 40.6016 19.5693C40.1296 21.6364 39.6413 23.4837 39.1367 25.1113C38.6322 26.7389 38.0951 28.2526 37.5254 29.6523C36.972 31.0521 36.3779 32.3949 35.7432 33.6807C35.1247 34.9502 34.4574 36.2604 33.7412 37.6113C33.6436 37.7904 33.4971 37.9368 33.3018 38.0508C33.1227 38.181 32.9193 38.2461 32.6914 38.2461C32.1868 38.2461 31.8044 38.0671 31.5439 37.709C30.5348 36.2441 29.6234 34.7793 28.8096 33.3145C27.9958 31.8496 27.2633 30.4417 26.6123 29.0908C25.9775 27.7236 25.416 26.4378 24.9277 25.2334C24.4395 24.0127 24.0244 22.9222 23.6826 21.9619C22.7061 24.7939 21.6888 27.4551 20.6309 29.9453C19.5729 32.4193 18.3929 34.82 17.0908 37.1475C16.9932 37.3428 16.8385 37.5055 16.627 37.6357C16.4316 37.7822 16.2201 37.8555 15.9922 37.8555C15.5202 37.8555 15.154 37.6357 14.8936 37.1963C13.4775 34.9014 12.2324 32.5739 11.1582 30.2139C10.084 27.8376 9.14811 25.5182 8.35059 23.2559C7.56934 20.9935 6.90202 18.8288 6.34863 16.7617C5.79525 14.6784 5.33952 12.7741 4.98145 11.0488C4.63965 9.32357 4.37109 7.81803 4.17578 6.53223C3.99674 5.24642 3.86654 4.25358 3.78516 3.55371C3.37826 3.52116 2.97949 3.48861 2.58887 3.45605C2.19824 3.4235 1.81576 3.39095 1.44141 3.3584C1.11589 3.30957 0.839193 3.16309 0.611328 2.91895C0.39974 2.65853 0.293945 2.36556 0.293945 2.04004C0.342773 1.64941 0.489258 1.34831 0.733398 1.13672C0.977539 0.908854 1.26237 0.794922 1.58789 0.794922H1.68555C3.54102 0.990234 5.44531 1.08789 7.39844 1.08789C8.96094 1.08789 10.5153 1.03092 12.0615 0.916992C13.624 0.786784 15.1377 0.599609 16.6025 0.355469H16.7979C17.1722 0.355469 17.4814 0.485677 17.7256 0.746094C17.9697 0.990234 18.0918 1.27507 18.0918 1.60059C18.0918 1.92611 17.986 2.21094 17.7744 2.45508C17.5791 2.69922 17.3187 2.8457 16.9932 2.89453C16.2607 2.99219 15.5202 3.08984 14.7715 3.1875C14.0391 3.28516 13.2822 3.37467 12.501 3.45605C12.5661 4.05827 12.6637 4.85579 12.7939 5.84863C12.9404 6.8252 13.1276 7.9401 13.3555 9.19336C13.5833 10.4303 13.86 11.7812 14.1855 13.2461C14.5273 14.6947 14.9261 16.2002 15.3818 17.7627C15.8538 19.3089 16.3828 20.8877 16.9688 22.499C17.571 24.0941 18.2464 25.6647 18.9951 27.2109C19.7601 25.4043 20.4762 23.5732 21.1436 21.7178C21.8271 19.846 22.4294 17.9661 22.9502 16.0781C23.471 14.1901 23.9105 12.3021 24.2686 10.4141C24.6266 8.50977 24.8708 6.60547 25.001 4.70117C25.0335 4.37565 25.1556 4.1071 25.3672 3.89551C25.5951 3.66764 25.8717 3.53743 26.1973 3.50488C26.5228 3.50488 26.8076 3.60254 27.0518 3.79785C27.2959 3.99316 27.4587 4.24544 27.54 4.55469C27.8818 6.44271 28.2969 8.33073 28.7852 10.2188C29.2734 12.0905 29.8431 13.9948 30.4941 15.9316C31.1615 17.8522 31.9102 19.8053 32.7402 21.791C33.5703 23.7767 34.4899 25.8112 35.499 27.8945C35.9873 26.6413 36.4512 25.2578 36.8906 23.7441C37.3464 22.2305 37.7858 20.5052 38.209 18.5684C38.6322 16.6315 39.0553 14.4342 39.4785 11.9766C39.9017 9.51888 40.3249 6.71126 40.748 3.55371C40.0156 3.52116 39.2832 3.47233 38.5508 3.40723C37.8346 3.32585 37.0941 3.22005 36.3291 3.08984C36.0361 3.04102 35.7839 2.90267 35.5723 2.6748C35.377 2.43066 35.2793 2.15397 35.2793 1.84473C35.2793 1.42155 35.4176 1.10417 35.6943 0.892578C35.9873 0.664714 36.2721 0.550781 36.5488 0.550781H36.793C38.4206 0.84375 40.0563 0.990234 41.7002 0.990234C42.6768 0.990234 43.6452 0.941406 44.6055 0.84375C45.5658 0.746094 46.526 0.583333 47.4863 0.355469H47.7793C48.1374 0.355469 48.4466 0.485677 48.707 0.746094C48.9674 0.990234 49.0977 1.27507 49.0977 1.60059Z" fill="black"/>
</svg>
